<?xml version="1.0" standalone="no"?>
<!DOCTYPE svg PUBLIC "-//W3C//DTD SVG 20010904//EN"
 "http://www.w3.org/TR/2001/REC-SVG-20010904/DTD/svg10.dtd">
<svg version="1.0" xmlns="http://www.w3.org/2000/svg"
 width="300.000000pt" height="168.000000pt" viewBox="0 0 300.000000 168.000000"
 preserveAspectRatio="xMidYMid meet">
<metadata>
Created by potrace 1.16, written by Peter Selinger 2001-2019
</metadata>
<g transform="translate(0.000000,168.000000) scale(0.100000,-0.100000)"
fill="#000000" stroke="none">
<path d="M70 1670 c0 -6 4 -9 9 -5 6 3 9 -9 8 -27 l-2 -33 70 -3 c39 -2 90 2
115 9 51 13 120 49 120 61 0 4 -23 8 -50 8 -45 0 -52 -3 -60 -25 -12 -32 -24
-33 -16 -2 6 24 5 24 -94 26 -67 1 -100 -2 -100 -9z"/>
<path d="M456 1661 c-31 -35 -158 -90 -228 -100 -63 -9 -172 -2 -210 14 -17 7
-18 -35 -18 -784 l0 -791 85 0 c47 0 85 2 85 4 0 3 -13 41 -30 85 -72 196 -96
497 -55 711 37 197 119 397 237 575 55 82 203 231 213 215 4 -7 -3 -19 -16
-28 -69 -48 -138 -119 -175 -180 -86 -144 -93 -316 -18 -463 25 -50 113 -148
164 -182 24 -17 24 -17 -13 -2 -51 20 -75 8 -69 -34 2 -17 8 -28 13 -25 5 3 9
-2 9 -10 0 -8 6 -19 14 -23 9 -5 12 -18 9 -35 -6 -33 -23 -27 -23 8 0 14 -6
24 -14 24 -11 0 -13 -10 -9 -42 4 -34 2 -40 -7 -28 -10 13 -11 13 -6 -2 3 -10
1 -28 -4 -40 -11 -28 -13 108 -3 190 5 41 9 52 21 47 13 -5 13 -3 1 12 -7 10
-30 35 -50 55 -20 20 -34 40 -31 43 3 3 -1 5 -9 5 -11 0 -21 30 -37 108 -12
59 -24 121 -25 137 -3 28 -5 27 -27 -25 -13 -30 -41 -89 -62 -130 -46 -89 -64
-160 -79 -315 -18 -183 15 -422 83 -596 l23 -58 203 -1 c161 0 202 3 195 13
-40 51 -55 221 -28 311 8 26 12 53 8 59 -3 5 -2 7 4 4 6 -4 16 6 22 21 53 118
140 176 323 213 116 24 253 -18 335 -103 128 -134 160 -320 80 -475 -10 -18
-17 -34 -17 -38 0 -3 90 -5 201 -5 186 0 200 1 195 18 -11 39 -119 440 -128
477 -5 22 -25 89 -44 149 -33 108 -46 188 -23 156 7 -11 8 -5 2 20 -4 19 -7
54 -7 78 1 23 -2 42 -7 42 -5 0 -9 9 -9 20 0 10 -6 34 -14 52 -17 39 -46 163
-46 197 0 28 -54 117 -80 131 -17 9 -60 129 -97 273 l-18 67 -304 0 -305 0
-50 -42 -51 -41 40 41 39 42 -70 0 c-57 0 -74 -4 -88 -19z m600 -101 c56 -31
125 -104 154 -160 39 -76 53 -149 47 -247 -5 -82 -10 -103 -45 -176 -72 -148
-197 -249 -341 -277 -94 -18 -205 4 -217 42 -5 16 -8 18 -15 7 -7 -11 -10 -9
-15 9 -4 12 -10 22 -14 22 -4 0 -24 16 -43 35 -19 19 -42 35 -51 35 -9 0 -17
6 -17 13 -3 28 -5 33 -21 57 -25 38 -45 204 -26 216 5 3 6 14 3 24 -4 12 1 22
12 29 10 6 13 11 6 11 -16 0 7 46 33 65 11 8 14 15 7 15 -16 0 -5 30 11 30 11
0 30 25 63 84 11 17 13 18 13 4 0 -10 7 -18 16 -18 11 0 13 6 9 19 -3 11 -1
22 5 26 6 3 8 10 6 14 -3 4 8 5 24 3 24 -3 32 1 41 22 9 19 15 23 21 14 6 -10
8 -10 8 0 0 9 7 11 19 7 12 -4 21 0 26 12 6 16 8 16 19 -6 l13 -24 7 27 c7 28
26 36 26 11 0 -8 5 -15 10 -15 6 0 10 7 10 15 0 9 12 18 30 22 37 7 38 16 3
31 -25 10 -20 11 31 7 33 -3 82 -16 110 -30 28 -14 44 -20 35 -13 -8 7 -31 25
-50 40 -45 36 -27 35 37 -2z"/>
<path d="M1849 1673 c-1 -5 0 -21 1 -38 2 -25 0 -27 -13 -16 -12 10 -19 10
-36 -1 -12 -7 -17 -16 -12 -23 5 -5 3 -30 -3 -55 -8 -34 -16 -45 -30 -45 -11
0 -21 -6 -24 -14 -3 -10 0 -12 12 -8 10 4 16 1 16 -8 0 -8 6 -15 13 -15 6 -1
2 -9 -10 -19 -28 -23 -29 -34 -4 -26 22 7 38 -10 20 -21 -8 -4 -7 -9 2 -16 10
-7 8 -8 -8 -5 -16 4 -20 1 -16 -11 4 -10 2 -13 -5 -8 -14 8 -15 -19 -2 -49 7
-17 9 -16 10 10 l2 30 8 -30 c5 -22 8 -24 9 -9 1 27 8 33 32 27 20 -5 27 -43
8 -43 -5 0 -7 -5 -3 -11 4 -8 12 -3 20 12 10 18 13 20 14 7 0 -9 -4 -20 -10
-23 -5 -3 -10 -15 -10 -26 0 -10 -4 -19 -10 -19 -5 0 -10 7 -10 15 0 8 -4 15
-10 15 -14 0 -12 -27 3 -33 16 -7 -13 -29 -30 -22 -7 2 -13 0 -13 -5 0 -6 4
-10 9 -10 15 0 6 -49 -12 -71 -10 -11 -17 -26 -17 -34 0 -7 -4 -17 -10 -20 -5
-3 -10 -15 -10 -26 0 -10 5 -19 10 -19 6 0 10 5 10 10 0 17 14 11 29 -11 11
-19 11 -21 -3 -16 -10 4 -13 1 -9 -9 3 -10 -2 -14 -18 -15 -13 0 -18 -3 -11
-6 6 -2 12 -12 13 -21 0 -12 3 -10 9 6 5 12 14 22 20 22 14 0 13 -17 -2 -24
-7 -3 -2 -4 12 -3 18 1 24 7 22 20 -2 14 3 17 28 15 29 -2 55 -18 31 -18 -6 0
-11 -4 -11 -10 0 -5 9 -10 19 -10 26 0 32 -11 18 -30 -15 -19 -53 -48 -45 -35
4 6 2 17 -3 25 -6 10 -8 3 -4 -22 2 -23 0 -38 -7 -38 -6 0 -8 -11 -6 -25 5
-21 2 -25 -21 -25 -25 -1 -25 -1 -7 -15 11 -8 14 -15 8 -15 -7 0 -12 -4 -12
-10 0 -5 7 -10 16 -10 10 0 14 -5 10 -15 -3 -9 0 -18 8 -21 9 -3 12 -19 10
-48 -3 -38 0 -45 19 -51 12 -4 28 -6 35 -6 6 1 12 -3 12 -9 0 -5 -12 -10 -27
-11 l-28 -1 29 -8 c16 -5 34 -6 39 -3 6 3 7 1 3 -5 -4 -7 -13 -12 -20 -12 -7
0 -12 -14 -12 -34 0 -22 4 -32 12 -29 8 3 10 -4 7 -21 -4 -20 -1 -26 12 -26
12 0 15 -5 10 -20 -8 -24 22 -29 31 -5 7 17 44 21 44 4 0 -6 14 -9 35 -6 27 4
35 1 36 -12 3 -40 5 -45 19 -49 12 -4 13 -3 2 10 -11 14 -8 17 23 22 19 4 41
4 48 0 6 -4 9 -4 5 0 -7 9 31 50 39 42 3 -3 2 -13 -2 -23 -12 -28 -6 -56 17
-76 17 -14 17 -17 4 -17 -9 0 -19 -7 -22 -15 -4 -9 -19 -15 -41 -15 -30 0 -33
-3 -28 -20 5 -15 0 -21 -27 -30 -31 -9 -30 -9 12 -4 25 3 50 6 57 7 7 0 12 3
11 6 -2 20 4 22 17 5 10 -13 17 -15 22 -8 5 7 16 8 29 3 29 -10 40 -29 17 -30
-14 0 -13 -2 5 -10 29 -11 22 -25 -18 -32 -27 -6 -43 -27 -20 -27 6 0 10 6 10
13 0 8 4 7 10 -3 16 -25 12 -30 -19 -24 -26 5 -30 3 -28 -15 1 -11 7 -21 15
-21 7 0 10 5 7 10 -8 13 11 13 36 0 23 -13 54 11 45 35 -6 18 10 30 18 13 5
-10 7 -10 12 0 9 20 44 -15 44 -44 0 -13 5 -26 10 -29 6 -3 10 1 10 10 0 9 5
13 10 10 15 -9 12 -45 -4 -45 -11 0 -12 -5 -3 -24 l12 -25 12 22 12 22 1 -22
0 -23 275 0 275 0 0 840 0 840 -575 0 c-316 0 -575 -3 -576 -7z m748 -159 c21
-25 51 -60 66 -77 77 -88 198 -328 241 -477 48 -167 62 -441 30 -602 -18 -91
-41 -135 -30 -58 15 108 18 320 7 420 -24 206 -103 435 -203 595 -39 61 -158
221 -187 252 -12 12 -21 25 -21 28 0 13 60 -37 97 -81z"/>
</g>
</svg>
