<?xml version="1.0" standalone="no"?>
<!DOCTYPE svg PUBLIC "-//W3C//DTD SVG 20010904//EN"
 "http://www.w3.org/TR/2001/REC-SVG-20010904/DTD/svg10.dtd">
<svg version="1.0" xmlns="http://www.w3.org/2000/svg"
 width="259.000000pt" height="194.000000pt" viewBox="0 0 259.000000 194.000000"
 preserveAspectRatio="xMidYMid meet">
<metadata>
Created by potrace 1.16, written by Peter Selinger 2001-2019
</metadata>
<g transform="translate(0.000000,194.000000) scale(0.100000,-0.100000)"
fill="#000000" stroke="none">
<path d="M172 1931 c73 -11 71 -25 -2 -17 l-65 7 62 -41 c111 -75 113 -86 34
-167 -27 -28 -61 -68 -75 -90 -24 -36 -26 -47 -20 -94 4 -30 10 -58 14 -64 4
-5 10 -36 13 -68 6 -75 -7 -81 -73 -33 -27 20 -52 36 -55 36 -3 0 -5 -315 -5
-700 l0 -700 271 0 c254 0 271 1 264 18 -4 9 -22 57 -40 107 -17 50 -41 110
-52 135 -12 25 -35 88 -53 139 -17 52 -47 124 -65 160 -54 109 -103 236 -135
351 -11 41 -30 106 -41 144 -18 57 -19 71 -7 82 15 15 219 84 230 78 4 -3 -1
-28 -10 -57 -24 -79 -21 -251 6 -350 24 -84 84 -204 114 -225 10 -7 18 -18 18
-24 0 -7 -7 -3 -15 8 -14 17 -14 15 0 -13 31 -66 175 -202 238 -226 9 -3 17
-13 17 -21 0 -17 177 -106 211 -106 37 0 69 -11 63 -21 -3 -5 4 -9 15 -9 19 0
20 -2 9 -20 -7 -11 -14 -16 -16 -11 -4 13 -64 -7 -79 -27 -10 -12 -10 -17 -1
-23 7 -4 17 -5 23 -1 5 4 21 8 34 10 13 2 36 9 50 16 14 7 39 16 54 20 17 4
25 11 21 18 -5 8 -2 9 10 5 10 -4 30 -7 44 -7 25 -1 26 -1 7 -12 -11 -7 -27
-13 -35 -15 -21 -3 -90 -32 -90 -38 0 -5 86 23 135 45 22 10 67 20 100 23 33
3 98 13 144 21 46 9 95 13 108 10 14 -4 23 -2 23 5 0 6 15 11 34 11 24 0 36
-5 39 -18 4 -15 5 -15 6 0 1 16 41 22 41 6 0 -4 15 -10 34 -14 26 -4 33 -10
29 -22 -3 -11 2 -9 16 6 11 13 25 21 30 18 5 -3 11 4 14 15 3 12 10 18 16 14
6 -3 11 -2 11 2 0 10 70 38 84 35 4 -2 15 3 24 10 14 12 14 10 2 -12 -7 -14
-44 -71 -81 -128 -38 -56 -69 -104 -69 -107 0 -3 18 -5 39 -5 30 0 41 5 46 19
3 11 12 22 20 25 8 3 15 11 15 18 0 9 -3 8 -10 -2 -5 -8 -10 -10 -10 -4 0 6 6
17 14 23 22 19 29 -4 11 -38 -17 -34 -18 -41 -7 -41 5 0 14 10 21 22 l11 23
-6 -22 c-4 -18 -1 -23 13 -23 13 0 26 18 45 61 46 103 157 271 200 302 21 15
45 27 53 27 8 0 19 8 24 18 10 16 12 16 26 -2 17 -22 19 -48 6 -74 -5 -9 -16
-33 -24 -53 -13 -31 -113 -164 -166 -221 -27 -29 -41 -47 -41 -53 0 -3 115 -5
255 -5 l255 0 0 450 c-1 248 -5 450 -10 450 -4 0 -5 15 0 33 4 18 8 68 9 110
2 76 -7 96 -28 59 -6 -9 -11 -12 -11 -5 0 6 6 18 13 25 6 7 14 20 17 28 3 8 6
189 8 403 l2 387 -637 0 c-562 0 -635 -2 -617 -15 19 -14 19 -14 -2 -15 -12 0
-27 7 -34 15 -11 13 -54 15 -297 15 l-285 -1 18 -21 c11 -12 13 -18 6 -14 -8
5 -19 1 -28 -10 -14 -18 -15 -18 -9 3 4 15 0 25 -12 31 -17 9 -263 14 -263 6
0 -3 10 -9 23 -14 l22 -9 -23 0 c-13 -1 -30 5 -38 13 -10 11 -46 14 -151 14
-89 0 -121 -3 -91 -7z m370 -13 c11 0 15 -5 11 -14 -3 -8 0 -14 6 -14 7 0 14
7 17 15 5 12 10 13 19 5 10 -8 14 -7 18 7 3 10 5 2 6 -17 l2 -35 15 30 c8 17
12 23 10 14 -3 -12 4 -18 25 -23 17 -3 28 -10 24 -15 -3 -6 -12 -8 -20 -4 -8
3 -15 0 -15 -6 0 -6 11 -11 25 -11 15 0 25 6 25 14 0 17 18 31 27 22 3 -3 0
-13 -8 -23 -13 -15 -12 -15 12 0 14 10 29 14 32 10 4 -3 14 2 22 13 14 19 14
19 15 -1 0 -18 7 -21 56 -21 34 -1 59 -6 64 -14 4 -7 13 -9 19 -6 6 4 9 12 6
17 -3 5 1 6 10 3 10 -4 21 1 30 12 13 18 14 18 34 -6 15 -18 19 -33 15 -55 -4
-16 -8 -32 -10 -34 -1 -2 -76 9 -166 23 -90 15 -206 33 -258 42 -211 33 -233
38 -214 45 10 3 24 3 29 -1 27 -22 93 -11 78 13 -4 7 -8 6 -12 -4 -4 -11 -13
-13 -31 -8 -24 7 -24 7 -2 8 13 1 22 7 22 17 0 11 6 14 23 8 12 -4 30 -7 39
-6z m1500 -228 c196 -41 223 -55 156 -78 -31 -11 -30 -11 18 -7 54 6 68 -3 91
-55 6 -14 61 -92 122 -174 106 -142 111 -149 93 -165 -10 -9 -21 -24 -25 -33
-7 -19 -27 -25 -27 -8 0 6 4 10 8 10 5 0 9 6 9 13 0 6 4 26 8 42 8 28 7 29
-11 15 -10 -8 -25 -22 -32 -30 -10 -13 -11 -13 -6 2 8 22 -24 68 -47 68 -14 0
-21 9 -25 30 -6 26 -27 43 -50 39 -21 -4 -34 2 -34 15 0 15 -75 56 -104 56
-19 0 -79 30 -84 43 -2 4 -18 7 -35 7 -49 0 -74 10 -86 33 -7 13 -9 14 -7 5 4
-11 0 -18 -9 -18 -8 0 -15 -5 -15 -11 0 -8 -5 -7 -15 1 -9 7 -13 15 -10 18 8
8 -16 32 -27 26 -5 -3 -18 3 -29 15 -11 12 -31 28 -44 37 -14 9 -23 19 -21 23
3 4 -7 8 -21 9 -23 2 -24 0 -12 -16 13 -15 12 -16 -3 -3 -10 7 -15 17 -13 21
3 5 -8 17 -25 26 -28 17 -39 33 -22 35 4 0 39 8 77 19 93 24 93 24 257 -10z
m-973 -189 c29 -31 71 -45 160 -55 51 -5 55 -4 87 29 18 19 40 35 47 35 17 0
63 -49 71 -75 10 -34 67 -62 159 -79 83 -15 147 -44 147 -67 0 -5 7 -9 15 -9
19 0 86 -60 79 -71 -8 -13 -24 -11 -24 3 0 14 -30 48 -42 48 -12 0 2 -51 19
-71 9 -11 12 -29 7 -58 -4 -22 -4 -41 -1 -41 3 0 22 9 41 21 20 11 41 19 48
16 8 -3 3 -9 -12 -15 -27 -11 -62 -47 -53 -56 9 -8 -14 -64 -36 -88 -12 -12
-21 -25 -21 -30 0 -13 30 -9 31 5 0 10 2 10 6 0 9 -25 23 -12 23 21 0 68 17
81 56 45 27 -26 49 -18 33 12 -5 11 -7 30 -3 42 4 12 7 31 6 42 -2 16 3 14 28
-13 16 -18 30 -40 29 -50 -1 -37 -36 -154 -43 -143 -5 8 -13 8 -28 0 -20 -11
-20 -13 -5 -24 23 -17 21 -31 -8 -57 -14 -12 -25 -25 -25 -30 0 -18 -31 -81
-37 -75 -3 4 0 13 7 22 7 8 9 15 5 15 -12 0 -65 -34 -65 -41 0 -4 -16 -13 -35
-19 -43 -14 -57 -48 -27 -68 17 -11 20 -18 11 -34 -8 -15 -6 -26 7 -46 10 -15
17 -35 15 -46 -1 -10 2 -15 8 -12 11 7 31 -24 31 -48 0 -9 -5 -16 -11 -16 -5
0 -7 4 -4 10 3 5 1 18 -5 27 -8 15 -10 12 -6 -15 4 -28 0 -34 -27 -49 -18 -9
-46 -16 -63 -15 -23 1 -36 -6 -52 -27 -11 -16 -30 -31 -41 -34 -25 -6 -25 -4
-5 34 12 23 13 34 4 44 -7 8 -8 20 -4 26 4 8 3 9 -4 5 -7 -4 -12 -23 -12 -43
0 -22 -7 -41 -17 -49 -31 -23 -35 -15 -12 23 21 34 22 36 3 28 -10 -4 -38 -13
-62 -20 -37 -9 -41 -13 -29 -24 13 -10 13 -16 1 -39 -8 -15 -14 -33 -14 -39 0
-9 -18 -13 -57 -13 -32 0 -53 4 -48 8 14 9 18 63 7 91 -7 21 -9 20 -45 -18
-43 -47 -45 -58 -14 -65 12 -2 1 -4 -25 -3 -31 2 -49 -2 -53 -11 -3 -9 -16
-11 -42 -7 -65 11 -71 15 -43 30 31 18 67 19 73 3 3 -8 6 -6 6 5 1 9 -3 17 -9
17 -5 0 -10 8 -10 18 0 13 -13 23 -39 32 -34 11 -42 11 -55 -3 -16 -16 -12
-47 7 -47 6 0 8 -3 5 -6 -4 -3 -17 2 -31 11 -17 11 -27 13 -32 5 -3 -6 -10 -8
-15 -5 -14 9 23 65 43 65 9 0 17 4 17 9 0 13 -50 52 -59 46 -4 -2 -15 12 -25
30 -20 36 -36 38 -36 4 0 -11 -7 -22 -16 -26 -9 -3 -12 -9 -6 -12 11 -7 24
-71 14 -70 -4 0 -20 8 -37 18 -25 15 -31 27 -38 69 -5 29 -13 52 -18 52 -5 0
-25 14 -43 31 -27 24 -36 42 -41 79 -6 41 -11 49 -32 55 -38 9 -73 50 -73 85
0 18 -6 33 -15 36 -26 10 -16 25 12 18 21 -6 25 -4 20 9 -4 10 3 23 19 36 15
12 22 25 18 35 -8 21 -23 20 -47 -1 -19 -17 -19 -17 -16 2 3 11 21 28 42 38
42 20 46 31 15 48 -17 9 -23 9 -26 0 -2 -6 -8 -9 -13 -5 -5 3 -12 -2 -15 -11
-5 -12 -9 -13 -20 -4 -21 17 -17 29 9 29 27 0 73 45 56 56 -6 3 -15 0 -20 -7
-7 -11 -9 -9 -9 7 0 11 -5 25 -12 32 -9 9 -8 12 6 12 13 0 16 5 10 23 -7 22
-6 22 15 3 23 -21 23 -21 21 49 -1 28 -6 52 -11 53 -16 6 -10 22 9 22 30 0 44
34 27 67 -26 49 -20 60 28 59 34 -1 43 -4 40 -16 -2 -9 6 -25 18 -35 22 -20
22 -20 15 2 -8 24 17 44 43 35 8 -2 11 0 7 6 -6 11 37 28 84 34 l25 3 -24 22
c-20 18 -22 27 -16 62 4 23 13 48 22 56 24 25 72 18 102 -14z"/>
</g>
</svg>
