<?xml version="1.0" standalone="no"?>
<!DOCTYPE svg PUBLIC "-//W3C//DTD SVG 20010904//EN"
 "http://www.w3.org/TR/2001/REC-SVG-20010904/DTD/svg10.dtd">
<svg version="1.0" xmlns="http://www.w3.org/2000/svg"
 width="138.000000pt" height="92.000000pt" viewBox="0 0 138.000000 92.000000"
 preserveAspectRatio="xMidYMid meet">
<metadata>
Created by potrace 1.16, written by Peter Selinger 2001-2019
</metadata>
<g transform="translate(0.000000,92.000000) scale(0.100000,-0.100000)"
fill="#000000" stroke="none">
<path d="M210 892 c-19 -15 -37 -30 -38 -34 -2 -5 -7 -6 -12 -3 -4 3 -19 -10
-33 -29 l-26 -33 35 -1 c22 -1 37 4 40 13 4 8 11 12 16 9 6 -4 5 -9 -3 -14
-19 -12 87 -140 117 -140 12 0 30 -7 39 -16 14 -15 15 -12 10 25 -2 23 -9 49
-14 58 -29 53 -34 113 -10 113 6 0 8 12 7 28 -2 22 1 28 21 30 13 2 21 -1 17
-6 -3 -6 21 -7 64 -4 54 4 75 1 94 -12 34 -21 106 -22 106 0 0 38 -21 43 -211
43 l-184 0 -35 -27z"/>
<path d="M855 905 c17 -8 42 -12 56 -9 16 3 31 -1 39 -11 7 -8 20 -15 30 -15
9 0 23 -11 30 -25 7 -14 20 -25 28 -25 7 0 32 -16 55 -35 22 -19 45 -35 49
-35 5 0 6 -5 2 -11 -3 -6 1 -10 12 -9 31 4 44 1 44 -10 0 -5 -7 -6 -17 -3 -11
4 -14 3 -9 -5 4 -7 14 -12 22 -12 8 0 14 -6 14 -12 0 -9 4 -8 11 2 9 13 12 13
22 -4 7 -10 27 -35 44 -55 40 -44 63 -108 63 -176 l0 -51 -70 -52 c-39 -29
-77 -55 -85 -59 -8 -3 -15 -11 -15 -18 0 -7 -6 -16 -12 -18 -10 -4 -9 -8 2
-17 12 -9 8 -10 -17 -5 -19 4 -34 2 -38 -5 -8 -13 35 -130 48 -130 8 0 52 28
87 57 8 6 39 30 68 53 35 27 52 47 48 56 -3 9 -1 12 4 9 6 -4 10 61 10 182
l-1 188 -42 44 -42 44 40 -31 c23 -19 41 -28 44 -21 4 13 -99 119 -120 123 -8
1 -43 16 -79 34 -77 38 -246 82 -310 81 l-45 -1 30 -13z"/>
<path d="M459 872 c-21 -2 -26 -7 -22 -23 6 -23 11 -24 35 -2 17 15 18 15 13
1 -4 -11 1 -21 14 -30 12 -7 21 -20 21 -30 0 -9 12 -21 28 -26 24 -9 24 -11 5
-11 -27 -1 -40 -19 -18 -27 12 -5 13 -9 4 -20 -9 -11 -6 -14 20 -14 39 0 87
24 101 49 8 16 6 21 -10 26 -11 3 -24 4 -29 1 -5 -3 -12 1 -15 10 -4 10 -14
14 -26 11 -11 -3 -27 1 -35 10 -18 18 -20 36 -2 30 6 -2 11 -11 9 -18 -1 -8 4
-6 13 5 19 25 9 39 -22 31 -14 -3 -22 -2 -20 2 8 12 -34 28 -64 25z"/>
<path d="M1 575 c1 -111 3 -135 15 -131 7 3 16 1 19 -4 4 -6 -3 -10 -14 -10
-34 0 -24 -17 10 -18 25 -1 29 2 24 16 -4 9 -13 37 -20 61 -17 53 -2 42 18
-14 8 -22 18 -48 22 -58 4 -10 4 -17 -1 -16 -32 6 -74 -3 -74 -15 0 -8 9 -12
23 -11 12 1 31 -1 42 -6 15 -6 9 -8 -22 -8 -61 -1 -53 -17 11 -25 33 -5 57
-13 60 -22 3 -8 1 -14 -3 -14 -5 0 -11 4 -13 9 -1 5 -24 12 -50 16 -40 6 -48
5 -48 -9 0 -12 10 -16 39 -16 22 0 43 -4 46 -10 4 -6 -11 -7 -41 -3 -38 5 -46
3 -42 -8 3 -8 20 -17 39 -20 l34 -6 -37 -2 -37 -1 0 -125 0 -125 517 0 c284 1
511 4 504 9 -11 7 89 6 185 -2 18 -2 35 2 38 8 3 6 7 6 11 -2 3 -7 15 -13 27
-13 20 1 20 2 6 13 -19 14 -3 37 20 29 8 -3 11 0 7 7 -4 6 -3 11 2 11 16 0 56
40 59 60 4 25 -2 25 -39 -1 -16 -12 -31 -19 -33 -17 -2 2 14 15 35 28 35 22
40 29 40 62 0 43 -5 47 -21 17 -9 -17 -8 -20 3 -14 7 4 -5 -10 -27 -33 -31
-31 -61 -48 -130 -72 -80 -28 -103 -31 -200 -31 -125 -1 -325 27 -341 47 -5 7
-22 16 -37 19 -15 4 -27 11 -27 17 0 5 -5 6 -10 3 -6 -4 -9 -3 -8 2 3 8 -20
36 -70 88 -27 27 -91 52 -101 39 -3 -5 -12 -9 -18 -9 -7 0 -13 -3 -13 -7 0 -5
1 -7 3 -6 1 1 22 -13 46 -30 46 -33 67 -41 55 -19 -4 7 -3 9 2 4 5 -5 9 -14 9
-19 0 -6 6 -13 14 -16 9 -3 11 0 6 9 -5 9 -1 7 11 -3 10 -9 22 -17 27 -17 4
-1 7 -3 7 -6 0 -3 0 -7 0 -10 0 -3 -10 0 -22 6 -23 12 -23 12 -4 -9 10 -11 30
-24 45 -27 18 -4 27 -13 28 -26 2 -19 0 -20 -15 -7 -85 73 -253 162 -212 113
7 -8 9 -15 4 -15 -13 1 -189 149 -189 159 0 15 -11 22 -37 24 -14 1 -37 16
-52 33 -37 45 -32 52 9 15 56 -49 54 -36 -3 22 -28 28 -51 55 -52 60 0 22 -15
66 -33 95 -14 24 -18 44 -14 73 3 21 1 42 -4 45 -6 3 -9 -48 -8 -131z"/>
<path d="M1027 673 c-4 -3 -3 -11 2 -17 15 -19 19 -75 5 -69 -7 2 -10 12 -7
21 5 15 4 15 -13 0 -14 -14 -15 -21 -6 -30 19 -19 14 -38 -10 -39 -22 0 -22
-1 2 -11 16 -6 20 -12 12 -15 -10 -4 -10 -8 0 -21 12 -14 10 -14 -10 -3 -13 7
-27 22 -32 34 -7 20 -9 21 -15 4 -6 -14 1 -26 25 -47 18 -16 39 -26 46 -23 24
9 26 -25 4 -47 -16 -16 -20 -28 -15 -48 8 -32 21 -42 55 -41 l25 0 -25 11
c-14 6 -28 10 -32 10 -15 -3 -8 11 14 30 27 23 57 20 72 -7 24 -44 39 -41 56
11 10 30 9 38 -4 53 -14 16 -14 23 -2 64 7 25 12 48 9 51 -9 9 -33 -6 -33 -20
0 -17 0 -17 -43 1 l-36 15 5 70 c4 68 4 70 -19 70 -13 0 -27 -3 -30 -7z"/>
</g>
</svg>
