<?xml version="1.0" standalone="no"?>
<!DOCTYPE svg PUBLIC "-//W3C//DTD SVG 20010904//EN"
 "http://www.w3.org/TR/2001/REC-SVG-20010904/DTD/svg10.dtd">
<svg version="1.0" xmlns="http://www.w3.org/2000/svg"
 width="300.000000pt" height="168.000000pt" viewBox="0 0 300.000000 168.000000"
 preserveAspectRatio="xMidYMid meet">
<metadata>
Created by potrace 1.16, written by Peter Selinger 2001-2019
</metadata>
<g transform="translate(0.000000,168.000000) scale(0.100000,-0.100000)"
fill="#000000" stroke="none">
<path d="M1840 1667 c14 -7 43 -18 65 -26 22 -7 51 -20 65 -29 14 -9 31 -17
39 -18 7 -2 26 -14 40 -28 15 -14 30 -26 33 -26 4 0 19 -5 35 -11 26 -10 27
-12 8 -19 -18 -8 -17 -9 8 -9 15 -1 27 -5 27 -11 0 -5 6 -10 13 -10 19 -1 70
-57 64 -72 -4 -10 -6 -9 -7 2 -1 17 -87 76 -125 86 -14 3 -29 11 -33 18 -10
16 -100 76 -115 76 -7 0 -23 9 -37 20 -14 11 -36 20 -50 20 -15 0 -31 5 -37
11 -8 8 -17 8 -31 0 -10 -6 -22 -8 -25 -5 -10 10 -160 5 -171 -6 -5 -5 -21
-10 -34 -10 -32 0 -61 -17 -100 -59 -28 -31 -32 -42 -30 -81 2 -39 0 -45 -18
-48 -14 -2 -31 8 -48 28 -14 17 -26 27 -26 21 0 -18 -18 -13 -62 19 -22 17
-49 30 -58 30 -10 0 -33 6 -51 14 -22 8 -80 14 -161 15 -122 1 -128 0 -155
-24 l-28 -24 33 -1 c27 0 32 -4 32 -25 0 -14 -5 -25 -11 -25 -6 0 -9 -14 -7
-31 2 -25 -2 -33 -19 -40 -21 -8 -23 -5 -24 24 l-2 32 -6 -35 c-4 -26 -12 -36
-27 -38 -17 -2 -21 -8 -16 -25 5 -20 4 -20 -11 -8 -10 7 -30 11 -47 9 -16 -3
-30 -3 -30 -1 0 8 29 33 37 33 5 0 9 9 9 20 0 11 -4 20 -8 20 -14 0 -88 -50
-88 -59 0 -4 -11 -13 -25 -19 -13 -6 -27 -23 -31 -37 -5 -21 -12 -25 -40 -25
-19 0 -34 -4 -34 -10 0 -5 5 -10 11 -10 5 0 9 -8 7 -17 -1 -10 3 -33 11 -50 7
-18 11 -48 9 -68 -2 -19 -1 -35 2 -35 3 0 5 -13 4 -28 -2 -33 38 -84 64 -81
34 4 52 -11 46 -38 -10 -37 25 -27 49 15 30 52 39 103 20 124 -17 19 -8 42 14
34 8 -3 12 -2 9 2 -2 4 2 15 9 26 20 26 37 10 31 -27 -5 -28 -4 -27 14 11 16
36 23 42 40 37 15 -5 18 -3 14 8 -7 19 8 28 25 18 8 -5 9 -11 3 -15 -6 -3 -8
-15 -5 -26 4 -15 14 -20 42 -21 33 -1 34 -2 9 -8 -20 -4 -25 -10 -19 -20 6 -9
18 -11 34 -7 16 4 27 1 31 -7 3 -6 3 1 -1 16 -3 15 -1 27 3 26 5 -1 11 0 14 1
32 12 73 4 50 -10 -19 -12 -2 -30 27 -30 29 0 73 -44 73 -73 0 -14 -7 -18 -32
-15 -42 4 -47 -17 -9 -37 28 -14 36 -26 32 -49 -1 -4 7 -16 19 -26 11 -9 20
-22 20 -28 0 -6 10 -12 23 -14 16 -2 22 -10 22 -29 -1 -18 4 -25 12 -22 8 3
13 -3 13 -15 0 -11 7 -22 15 -26 8 -3 15 -10 15 -16 0 -5 -7 -10 -15 -10 -8 0
-15 5 -15 10 0 6 -4 10 -9 10 -14 0 -23 -49 -12 -67 7 -14 11 -12 24 13 l16
29 2 -25 c1 -17 3 -20 6 -7 2 9 9 15 14 12 5 -4 9 1 9 9 0 25 20 19 30 -10 13
-33 13 -57 0 -49 -5 3 -10 1 -10 -4 0 -6 5 -11 10 -11 6 0 10 -10 11 -22 1
-22 1 -22 9 2 7 21 8 18 9 -19 1 -37 3 -42 16 -31 8 7 15 9 15 4 0 -20 20 23
20 43 0 13 5 22 12 20 7 -1 12 4 13 11 0 6 3 12 8 12 8 0 8 -6 1 -36 -3 -12 4
-41 15 -65 19 -39 20 -70 1 -40 -5 8 -6 -9 -4 -43 2 -31 2 -56 -1 -56 -2 0
-11 12 -20 28 l-15 27 6 -26 c3 -15 1 -30 -5 -33 -6 -4 -11 -18 -11 -32 0 -21
-4 -23 -24 -18 -19 5 -25 1 -30 -22 -5 -17 -3 -30 5 -35 9 -5 8 -15 -4 -42
-19 -40 -22 -67 -6 -67 5 0 9 8 8 18 -3 31 1 43 11 37 6 -4 17 -1 25 5 28 23
17 -28 -12 -61 -16 -17 -27 -35 -26 -39 1 -3 -5 -7 -12 -7 -19 0 -24 18 -26
102 -1 39 -4 74 -7 79 -3 5 -13 -8 -24 -30 -12 -25 -15 -41 -8 -48 13 -13 13
-53 1 -61 -5 -3 -12 3 -16 14 -7 24 -42 17 -67 -13 -24 -28 -34 -86 -18 -96
14 -9 5 -30 -14 -30 -18 0 -56 -38 -56 -57 0 -24 237 -15 255 10 15 21 35 22
35 1 0 -8 -4 -12 -10 -9 -5 3 -10 1 -10 -4 0 -8 113 -11 356 -10 l356 0 23 27
c13 15 39 34 58 41 19 8 41 25 48 38 16 30 33 30 27 -2 -3 -13 0 -27 6 -30 6
-3 1 -3 -11 -1 -18 3 -23 -2 -28 -26 -4 -17 -16 -33 -28 -38 -13 -5 146 -9
391 -9 l412 -1 0 840 0 840 -592 0 c-481 0 -588 -2 -568 -13z m618 -522 c-3
-14 -1 -25 3 -25 5 0 9 6 9 13 0 9 2 9 9 -1 4 -7 6 -25 4 -40 -3 -18 -2 -23 4
-14 13 17 27 -14 54 -113 22 -86 40 -253 27 -261 -4 -3 -8 -20 -8 -37 0 -59
-12 -107 -26 -107 -8 0 -14 -4 -14 -10 0 -5 5 -10 10 -10 15 0 12 -19 -6 -37
-11 -12 -12 -18 -4 -23 9 -5 9 -9 1 -14 -6 -4 -11 -16 -11 -27 0 -11 -7 -22
-15 -25 -8 -4 -15 -12 -15 -19 0 -6 -9 -20 -20 -30 -11 -10 -20 -24 -20 -30 0
-7 -8 -19 -17 -26 -15 -13 -16 -12 -8 6 4 11 10 35 13 53 2 18 10 32 18 32 15
0 18 31 15 163 -1 46 3 77 9 77 5 0 10 9 10 21 0 15 -5 19 -15 15 -11 -4 -15
1 -15 19 0 14 4 25 9 25 6 0 9 50 8 117 -1 80 2 118 9 120 7 2 10 13 7 24 -5
18 -6 18 -18 2 -12 -16 -13 -15 -18 3 -9 28 -10 135 -2 162 10 30 19 28 13 -3z
m-911 -333 c2 -10 20 -26 39 -37 33 -17 45 -35 24 -35 -5 0 -10 -4 -10 -10 0
-5 7 -7 15 -4 11 5 13 2 9 -10 -3 -9 -10 -13 -15 -10 -5 3 -9 -1 -9 -8 0 -7
-14 -19 -31 -27 -28 -12 -33 -12 -41 3 -5 9 -20 16 -34 16 -17 0 -28 7 -31 20
-3 11 -9 17 -14 14 -5 -3 -9 0 -9 7 0 13 -14 3 -16 -12 -4 -30 -6 -32 -14 -14
-6 15 -9 8 -9 -27 -1 -27 -5 -48 -10 -48 -4 0 -6 11 -3 25 2 15 0 25 -7 25 -6
0 -11 10 -11 23 0 18 -2 19 -10 7 -11 -17 -13 -9 -4 14 5 12 10 14 19 6 16
-13 35 15 35 52 0 22 2 21 29 -9 29 -34 61 -44 61 -19 0 7 -7 19 -15 26 -8 7
-15 16 -15 21 0 5 7 6 15 3 9 -4 15 0 15 10 0 22 41 21 47 -2z"/>
</g>
</svg>
