<?xml version="1.0" standalone="no"?>
<!DOCTYPE svg PUBLIC "-//W3C//DTD SVG 20010904//EN"
 "http://www.w3.org/TR/2001/REC-SVG-20010904/DTD/svg10.dtd">
<svg version="1.0" xmlns="http://www.w3.org/2000/svg"
 width="150.000000pt" height="84.000000pt" viewBox="0 0 150.000000 84.000000"
 preserveAspectRatio="xMidYMid meet">
<metadata>
Created by potrace 1.16, written by Peter Selinger 2001-2019
</metadata>
<g transform="translate(0.000000,84.000000) scale(0.100000,-0.100000)"
fill="#000000" stroke="none">
<path d="M438 799 c28 -29 43 -54 49 -83 9 -52 10 -58 12 -75 0 -7 25 9 55 36
195 178 510 156 701 -48 38 -41 46 -55 41 -75 -5 -17 -3 -23 4 -19 5 3 10 15
10 26 0 27 20 24 21 -3 1 -17 3 -18 6 -6 6 22 101 24 110 2 3 -8 9 -11 14 -8
5 3 7 10 4 15 -4 5 -1 9 4 9 6 0 11 -12 11 -26 0 -22 -4 -25 -27 -22 -16 2
-31 10 -35 18 -5 12 -7 10 -8 -5 l-1 -20 -9 20 -9 20 -1 -20 c-2 -17 -3 -16
-10 5 -7 23 -8 23 -9 3 -1 -17 -6 -21 -28 -18 -32 3 -55 -4 -48 -15 3 -4 2
-29 -2 -56 l-6 -47 -17 43 c-9 24 -24 48 -33 55 -10 7 -17 16 -17 21 0 5 -9
16 -20 24 -11 8 -20 19 -20 26 0 16 -34 44 -52 44 -9 0 -18 6 -21 13 -4 10 -7
10 -18 0 -18 -17 -36 -16 -36 2 0 8 7 15 16 15 13 0 13 2 3 9 -20 12 -89 6
-107 -9 -9 -7 -14 -19 -11 -26 3 -8 0 -11 -10 -7 -17 6 -18 20 -1 26 6 2 8 8
4 13 -5 5 -14 1 -22 -9 -7 -10 -30 -21 -51 -24 -22 -3 -44 -10 -51 -15 -21
-17 -33 2 -30 47 2 30 -2 46 -11 50 -26 10 -39 5 -50 -17 -6 -13 -11 -17 -11
-10 -1 6 -10 12 -22 12 -14 0 -19 -5 -17 -17 2 -11 11 -17 21 -15 9 2 17 -2
17 -8 0 -21 -21 -50 -35 -50 -10 0 -15 -10 -15 -31 0 -24 -3 -30 -16 -25 -9 3
-26 6 -38 6 -19 0 -22 5 -21 29 1 26 0 28 -17 18 -36 -23 -60 -91 -59 -171 1
-137 58 -247 169 -323 62 -42 86 -52 195 -79 112 -27 244 12 329 99 48 49 68
92 68 143 0 76 10 24 12 -61 l2 -87 -44 -42 c-25 -22 -56 -49 -70 -58 -24 -16
-18 -17 148 -17 l172 -1 0 420 0 420 -552 0 -551 0 41 -41z m228 -450 c3 -6 1
-15 -6 -19 -11 -7 -10 -11 3 -24 20 -20 31 -21 23 -1 -3 8 -1 15 5 15 6 0 13
-9 16 -20 3 -11 14 -20 25 -20 11 0 16 -5 13 -11 -4 -6 -13 -8 -21 -5 -8 3
-14 1 -14 -4 0 -16 84 -12 106 5 22 17 38 20 29 5 -3 -5 0 -10 8 -10 8 0 14 6
13 14 0 8 2 15 7 15 9 1 9 -6 -5 -52 -12 -40 -60 -77 -73 -57 -3 6 -16 10 -28
10 -18 0 -19 2 -7 10 12 8 12 10 1 10 -8 0 -11 3 -7 7 9 10 -62 43 -79 37 -10
-4 -12 0 -8 15 3 12 1 21 -6 21 -6 0 -11 -12 -11 -26 0 -23 -2 -24 -15 -10 -8
8 -15 19 -15 24 0 6 -13 16 -29 23 -25 11 -27 15 -14 27 11 11 17 12 26 3 12
-12 38 -15 36 -3 -5 30 13 44 27 21z"/>
<path d="M208 798 c-9 -14 -12 -31 -8 -43 6 -17 8 -15 14 13 8 34 26 36 23 2
-1 -10 -5 -16 -9 -14 -8 5 -13 -24 -10 -58 1 -10 -2 -17 -6 -17 -25 4 -40 -4
-51 -28 -9 -20 -9 -29 0 -37 9 -8 10 -8 5 1 -3 6 5 24 19 39 14 15 25 23 25
19 0 -4 7 -1 16 6 15 12 16 11 10 -7 -4 -14 -1 -26 11 -35 15 -12 16 -12 11 2
-5 13 -2 16 13 12 10 -3 19 -9 19 -14 0 -5 5 -9 10 -9 6 0 4 12 -5 29 -13 27
-13 31 1 45 20 21 23 20 21 -4 -1 -11 -5 -20 -9 -20 -4 0 -1 -12 7 -27 8 -15
12 -30 10 -34 -3 -4 1 -12 9 -18 8 -7 12 -21 8 -34 -5 -20 -4 -20 11 -8 9 7
17 19 17 26 0 7 8 19 18 26 15 13 16 12 3 -3 -13 -18 -7 -58 7 -44 8 9 9 14
11 58 1 40 8 34 14 -17 4 -29 1 -42 -11 -52 -9 -7 -12 -13 -6 -13 15 0 39 29
31 36 -3 4 1 13 9 22 32 32 -14 177 -49 155 -6 -4 -7 -1 -2 7 4 7 2 16 -6 21
-19 12 -32 11 -24 -1 3 -6 -1 -7 -10 -4 -9 4 -14 13 -11 21 5 11 1 13 -15 8
-14 -5 -25 -2 -30 6 -8 12 -11 11 -19 -1 -7 -12 -12 -12 -22 -2 -18 18 -34 15
-50 -10z"/>
<path d="M423 506 c-18 -18 -62 -48 -99 -66 -83 -43 -180 -50 -268 -21 l-56
18 0 -218 0 -219 373 0 372 0 -33 20 c-18 11 -37 20 -42 20 -5 0 -37 28 -73
63 -105 104 -155 232 -144 370 3 37 5 67 4 66 -1 0 -17 -15 -34 -33z"/>
</g>
</svg>
