<?xml version="1.0" standalone="no"?>
<!DOCTYPE svg PUBLIC "-//W3C//DTD SVG 20010904//EN"
 "http://www.w3.org/TR/2001/REC-SVG-20010904/DTD/svg10.dtd">
<svg version="1.0" xmlns="http://www.w3.org/2000/svg"
 width="138.000000pt" height="92.000000pt" viewBox="0 0 138.000000 92.000000"
 preserveAspectRatio="xMidYMid meet">
<metadata>
Created by potrace 1.16, written by Peter Selinger 2001-2019
</metadata>
<g transform="translate(0.000000,92.000000) scale(0.100000,-0.100000)"
fill="#000000" stroke="none">
<path d="M175 643 c12 -10 24 -26 28 -36 6 -15 3 -17 -13 -12 -16 5 -19 2 -17
-13 1 -10 11 -31 20 -45 22 -34 14 -75 -16 -79 -14 -2 -23 -11 -25 -25 -2 -15
-10 -23 -23 -23 -10 0 -19 -4 -19 -9 0 -5 -9 -11 -21 -14 -11 -3 -23 -15 -26
-26 -3 -13 -10 -18 -21 -14 -11 5 -14 2 -9 -10 4 -10 0 -18 -12 -22 -12 -4
-18 -17 -20 -49 -2 -41 1 -46 51 -90 70 -63 172 -123 242 -143 31 -9 56 -20
56 -24 0 -5 55 -9 123 -8 67 0 116 3 110 6 -15 6 -17 33 -3 33 6 0 10 -5 10
-12 0 -6 2 -9 5 -6 7 6 -18 58 -28 58 -5 0 -6 -9 -2 -19 5 -16 2 -19 -17 -15
-15 3 -18 2 -8 -3 21 -11 24 -33 4 -33 -8 0 -12 4 -9 10 3 5 0 7 -7 5 -9 -4
-17 12 -26 51 -8 31 -11 58 -8 62 3 3 6 -6 6 -19 0 -19 2 -21 10 -9 8 12 12
13 19 2 6 -11 10 -10 16 5 7 17 8 17 15 -2 8 -18 9 -18 10 5 1 25 1 25 18 -5
15 -28 17 -28 20 -9 4 29 47 37 86 17 28 -14 29 -14 23 6 -3 12 -1 21 4 21 5
0 9 -8 10 -17 1 -12 4 -9 8 7 4 14 3 31 -2 38 -7 9 -4 12 12 12 11 0 21 4 21
9 0 6 10 7 23 4 12 -3 39 -5 60 -4 22 1 36 -2 33 -8 -3 -5 -15 -7 -26 -4 -12
3 -20 0 -20 -6 0 -7 4 -10 9 -6 5 3 16 -1 24 -9 8 -8 24 -12 35 -10 22 6 75
-23 66 -37 -3 -5 1 -6 9 -3 8 3 18 1 22 -5 3 -6 16 -11 27 -11 11 0 26 -7 33
-17 13 -18 35 -10 35 13 0 9 11 14 33 14 26 0 37 6 47 25 7 14 19 25 26 25 18
0 29 47 15 64 -9 11 -9 15 0 18 8 3 10 11 6 22 -4 11 -13 16 -22 12 -11 -4
-15 0 -13 11 2 9 -4 18 -12 20 -13 4 -13 3 0 -7 12 -10 11 -11 -7 -7 -13 3
-23 0 -23 -5 0 -6 -6 -6 -15 2 -8 6 -19 9 -24 6 -5 -4 -12 -2 -16 4 -3 5 -1
10 6 10 7 0 10 3 7 6 -4 3 -17 -1 -30 -9 -22 -14 -24 -13 -46 14 -26 32 -23
36 11 15 13 -8 30 -11 42 -7 16 6 13 9 -15 15 l-35 6 25 13 c47 25 89 36 95
26 4 -5 1 -9 -5 -9 -6 0 -8 -5 -5 -11 10 -15 47 21 40 40 -3 8 0 18 7 22 7 4
10 10 7 13 -3 3 -15 -3 -27 -14 -12 -12 -22 -17 -22 -13 0 4 -5 2 -11 -4 -6
-6 -18 -9 -25 -6 -8 3 -14 0 -14 -7 0 -6 -4 -9 -9 -6 -10 7 -9 31 2 42 4 4 13
-1 20 -11 12 -15 14 -16 14 -1 0 9 -4 16 -9 16 -5 0 -8 6 -6 13 3 13 -40 67
-54 67 -4 0 -8 -9 -8 -20 0 -12 -7 -32 -16 -45 -9 -13 -13 -29 -9 -35 3 -5 1
-10 -5 -10 -7 0 -35 -21 -63 -46 -61 -55 -127 -85 -215 -100 -44 -7 -227 23
-280 46 -23 11 -40 15 -37 10 7 -11 -6 -13 -29 -4 -9 3 -13 10 -10 15 3 6 -11
28 -31 50 -19 22 -38 53 -41 69 -4 19 -11 27 -20 23 -8 -3 -14 0 -14 6 0 6 5
11 10 11 10 0 12 79 3 113 -6 21 -45 42 -98 51 -39 6 -40 6 -20 -11z"/>
<path d="M700 622 c0 -4 16 -14 36 -21 26 -10 32 -16 25 -25 -14 -17 -1 -29
16 -15 10 9 13 8 13 -4 0 -8 -6 -20 -13 -26 -11 -8 -18 -6 -31 8 -11 12 -14
21 -7 26 13 8 14 25 2 25 -5 0 -12 -10 -16 -22 -11 -33 -11 -43 0 -43 6 0 15
-4 22 -8 6 -4 18 -4 27 -1 9 3 16 2 16 -3 0 -6 10 -15 23 -21 l22 -11 -23 0
c-15 -1 -22 -6 -19 -13 5 -14 11 -14 40 -3 11 5 17 2 17 -8 0 -21 -50 -18 -80
5 -15 12 -32 17 -47 13 -16 -4 -23 -1 -23 9 0 9 7 13 20 11 11 -2 20 0 20 6 0
5 -9 9 -20 9 -11 0 -20 5 -20 10 0 6 -8 10 -17 9 -11 0 -13 -3 -5 -6 6 -2 12
-17 12 -31 0 -20 -3 -23 -9 -13 -6 8 -19 12 -35 9 -15 -3 -29 -1 -32 3 -7 12
-24 11 -24 -1 0 -5 7 -10 15 -10 8 0 15 -5 15 -11 0 -6 9 -8 20 -4 24 8 26 -3
3 -20 -18 -13 -10 -35 13 -35 8 0 14 -5 14 -11 0 -6 -9 -8 -20 -4 -14 5 -20 2
-20 -9 0 -9 6 -16 14 -16 8 0 23 -3 33 -6 14 -5 15 -4 4 4 -12 8 -12 14 -3 25
7 7 8 18 4 22 -4 5 -2 5 5 1 7 -4 21 -1 32 6 27 17 41 0 16 -18 -17 -13 -18
-16 -5 -24 8 -5 20 -10 25 -10 6 0 3 -5 -5 -10 -10 -7 -11 -10 -2 -10 13 0 16
6 26 53 5 20 3 27 -9 27 -8 0 -15 5 -15 10 0 13 3 13 37 -1 54 -22 73 -32 73
-41 0 -13 -17 -9 -34 7 -22 22 -36 18 -36 -11 0 -21 4 -24 20 -19 11 3 28 2
37 -4 17 -10 17 -10 -2 -11 -11 -1 -15 -4 -9 -6 6 -3 22 0 35 5 13 5 17 10 9
11 -11 0 -12 2 -2 8 9 6 7 14 -9 31 -18 19 -19 25 -8 32 8 5 17 9 22 9 4 0 7
5 7 11 0 5 -3 8 -8 5 -13 -8 -44 22 -36 35 5 9 2 10 -11 6 -9 -4 -24 -2 -31 4
-17 14 -18 30 -3 27 6 -2 14 3 17 11 3 8 0 11 -6 7 -7 -4 -14 4 -18 19 -3 14
-12 25 -19 25 -7 0 -18 7 -25 15 -13 16 -50 21 -50 7z"/>
</g>
</svg>
